<svg width="40" height="40" viewBox="0 0 40 40" fill="none" xmlns="http://www.w3.org/2000/svg">
<path d="M20 20C24.6023 20 28.3333 16.269 28.3333 11.6666C28.3333 7.06427 24.6023 3.33331 20 3.33331C15.3976 3.33331 11.6666 7.06427 11.6666 11.6666C11.6666 16.269 15.3976 20 20 20Z" stroke="#DEDEDE" stroke-width="2"/>
<path d="M28.3334 36.6666H8.77669C8.30399 36.6668 7.83668 36.5663 7.40576 36.372C6.97485 36.1777 6.59019 35.894 6.27731 35.5396C5.96444 35.1853 5.7305 34.7685 5.59103 34.3168C5.45156 33.8652 5.40974 33.389 5.46835 32.92L6.11835 27.7133C6.26951 26.5037 6.85738 25.3909 7.77141 24.5843C8.68543 23.7777 9.86265 23.3328 11.0817 23.3333H11.6667" stroke="#DEDEDE" stroke-width="2" stroke-linecap="round" stroke-linejoin="round"/>
<path d="M26.6667 26.6666L30.4167 30L36.6667 23.3333" stroke="#DEDEDE" stroke-width="2" stroke-linecap="round" stroke-linejoin="round"/>
</svg>
