<svg width="40" height="40" viewBox="0 0 40 40" fill="none" xmlns="http://www.w3.org/2000/svg">
<path d="M34.1667 22.4998C34.1659 19.4932 33.2085 16.5647 31.4331 14.1382C29.6577 11.7117 27.1562 9.91296 24.2908 9.00231C21.4253 8.09166 18.3444 8.1163 15.4939 9.07266C12.6434 10.029 10.1711 11.8675 8.43465 14.3221C6.69825 16.7767 5.78783 19.7201 5.83513 22.7264C5.88243 25.7327 6.88498 28.646 8.69774 31.0448C10.5105 33.4436 13.0394 35.2034 15.9186 36.0696C18.7978 36.9358 23.5446 36.8635 26.38 35.8632C26.4091 35.1772 26.4091 34.6983 26.4091 34.0491C26.4091 34.0003 26.4091 33.5457 26.4091 33.5457C24.151 34.8505 20.95 34.4184 18.3678 34.0532C15.7855 33.688 13.4 32.468 11.5923 30.5882C9.78462 28.7084 8.65889 26.2771 8.3949 23.6825C8.1309 21.0879 8.74386 18.4797 10.1359 16.2743C11.5279 14.0689 13.6188 12.3935 16.0746 11.5156C18.5304 10.6378 21.2095 10.6081 23.6841 11.4313C26.1588 12.2545 28.2863 13.8831 29.7269 16.0571C31.1675 18.231 31.8381 20.825 31.6317 23.4248C32.4865 23.5505 33.3095 23.8379 34.0567 24.2715C34.13 23.6838 34.1668 23.0921 34.1667 22.4998ZM21.2384 14.4132C21.1952 14.0994 21.0345 13.8138 20.7889 13.6139C20.5432 13.414 20.2308 13.3149 19.9148 13.3365C19.5989 13.358 19.3029 13.4988 19.0867 13.7302C18.8704 13.9616 18.7501 14.2665 18.75 14.5832V22.0832L18.7617 22.2532C18.8049 22.5669 18.9655 22.8526 19.2112 23.0525C19.4569 23.2523 19.7693 23.3515 20.0852 23.3299C20.4012 23.3083 20.6972 23.1676 20.9134 22.9362C21.1296 22.7047 21.2499 22.3999 21.25 22.0832V14.5832L21.2384 14.4132ZM32.05 8.62317L31.9117 8.52317C31.6431 8.35718 31.3216 8.299 31.0119 8.36032C30.7021 8.42164 30.427 8.59793 30.2419 8.85374C30.0568 9.10956 29.9754 9.42596 30.014 9.73936C30.0526 10.0528 30.2084 10.3399 30.45 10.5432L32.3817 12.1515L32.5184 12.2515C32.7872 12.4204 33.1102 12.4807 33.4218 12.4201C33.7334 12.3596 34.0104 12.1827 34.1964 11.9255C34.3824 11.6682 34.4635 11.3498 34.4233 11.0349C34.3832 10.72 34.2247 10.4322 33.98 10.2298L32.05 8.62317ZM25 5.4165C25 5.08498 24.8683 4.76704 24.6339 4.53262C24.3995 4.2982 24.0816 4.1665 23.75 4.1665H16.25L16.08 4.17817C15.7663 4.22134 15.4806 4.38199 15.2808 4.62767C15.0809 4.87335 14.9817 5.18573 15.0033 5.5017C15.0249 5.81767 15.1656 6.11367 15.3971 6.32988C15.6285 6.5461 15.9333 6.66641 16.25 6.6665H23.75L23.92 6.65484C24.2193 6.61376 24.4936 6.4657 24.6921 6.23805C24.8906 6.01041 25 5.71857 25 5.4165Z" fill="#0260E8"/>
<path d="M32.3817 26.2415L32.37 26.0749C32.3453 25.8925 32.2805 25.7161 32.1804 25.5617C32.0803 25.4072 31.9473 25.2768 31.791 25.1796C31.6346 25.0825 31.4588 25.0211 31.2759 24.9998C31.0931 24.9786 30.9079 24.9979 30.7334 25.0565L28.23 25.8965L28.0734 25.9615C27.8026 26.0957 27.5895 26.3234 27.4737 26.6026C27.3579 26.8817 27.3471 27.1934 27.4434 27.4799L27.5084 27.6365C27.6425 27.9073 27.8703 28.1204 28.1494 28.2362C28.4286 28.352 28.7402 28.3628 29.0267 28.2665L29.88 27.9782V35.4032L29.8917 35.5732C29.9318 35.8896 30.0914 36.1788 30.3378 36.3814C30.5842 36.584 30.8987 36.6847 31.2169 36.663C31.5352 36.6413 31.833 36.4987 32.0496 36.2645C32.2661 36.0303 32.385 35.7222 32.3817 35.4032V26.2415Z" fill="#0260E8"/>
</svg>
